<?xml version="1.0" encoding="iso-8859-1"?>
<!-- Uploaded to: SVG Repo, www.svgrepo.com, Generator: SVG Repo Mixer Tools -->
<svg version="1.1" id="Layer_1" xmlns="http://www.w3.org/2000/svg" xmlns:xlink="http://www.w3.org/1999/xlink" 
	 viewBox="0 0 485 485" xml:space="preserve">
<rect x="200.1" y="159.7" style="fill:#84DBFF;" width="270.1" height="182.5"/>
<rect x="185.3" y="96.1" style="fill:#54C0EB;" width="299.7" height="63.6"/>
<rect x="200.1" y="159.7" style="fill:#52BCDD;" width="270.1" height="8.3"/>
<g>
	<rect x="325.7" y="102.2" style="fill:#F2F2F2;" width="18.9" height="239.9"/>
	<rect x="200.1" y="212.7" style="fill:#F2F2F2;" width="270.1" height="18.9"/>
	<path style="fill:#F2F2F2;" d="M410,61.1c-8.5-16.1-28.6-22.2-44.7-13.6c-9.3,4.9-21.5,23.8-30.1,38.9c-8.7-15.1-20.8-34-30.2-38.9
		c-16.1-8.5-36.2-2.4-44.7,13.7s-2.4,36,13.7,44.5c9.2,4.9,31.4,4.4,48.7,3.1l-44.9,80.3l13.4,7.4l43.9-78.6l43.9,78.6l13.4-7.4
		l-44.9-80.3c17.3,1.3,39.5,1.8,48.7-3.1C412.4,97.1,418.6,77.2,410,61.1z M281.2,92.2c-8.6-4.6-11.9-15.3-7.4-23.9
		c4.6-8.6,15.3-11.9,24-7.3c4.6,2.4,14.3,16,23.8,32.6l0,0C302.5,95,285.8,94.5,281.2,92.2z M389.1,92.2c-4.6,2.4-21.3,2.8-40.4,1.4
		l0,0C358.3,77,368,63.5,372.5,61c8.6-4.6,19.4-1.3,24,7.3C401,76.9,397.7,87.6,389.1,92.2z"/>
</g>
<path style="fill:#FFD15C;" d="M112.5,180.1c-30,0-54.3,24.2-54.3,54.1V275H43c-15.6,0-28.3,12.6-28.3,28.1v38.8h185.4V180.1H112.5z
	"/>
<path style="fill:#FFFFFF;" d="M112.5,208.3c-14.3,0-26,11.6-26,25.9v40.9h86.7v-66.7h-60.7V208.3z"/>
<path style="fill:#40596B;" d="M485,341.9v57.4h-48c0-23.2-19-42.1-42.3-42.1s-42.2,18.9-42.2,42.1H150.4c0-23.2-19-42.1-42.3-42.1
	s-42.2,18.9-42.2,42.1H0v-57.4H485z"/>
<g>
	<ellipse style="fill:#334A5E;" cx="108.2" cy="399.3" rx="42.3" ry="42.1"/>
	<ellipse style="fill:#334A5E;" cx="394.8" cy="399.3" rx="42.3" ry="42.1"/>
</g>
<rect x="143.8" y="291.6" style="fill:#40596B;" width="29.5" height="7.2"/>
<g>
	<ellipse style="fill:#FFFFFF;" cx="108.2" cy="399.3" rx="18.8" ry="18.7"/>
	<ellipse style="fill:#FFFFFF;" cx="394.8" cy="399.3" rx="18.8" ry="18.7"/>
</g>
</svg>