<?xml version="1.0" encoding="iso-8859-1"?>
<!-- Uploaded to: SVG Repo, www.svgrepo.com, Generator: SVG Repo Mixer Tools -->
<svg version="1.1" id="Layer_1" xmlns="http://www.w3.org/2000/svg" xmlns:xlink="http://www.w3.org/1999/xlink" 
	 viewBox="0 0 508 508" xml:space="preserve">
<polygon style="fill:#3DC9AE;" points="57.8,49.1 162.7,10.9 345.3,10.9 450.2,49.1 334.8,190.4 267.9,497.1 240.1,497.1 
	154.3,228.3 "/>
<path style="fill:#4CDBC4;" d="M390.4,197.1l-16.7,184.3l23.5,96L267.8,497c-10-84-10.3-156.2-5.2-217.1
	c15.8-186.2,82.5-269,82.5-269l38.4,14L450,49.1l58,330.3l-81.4,12.7L390.4,197.1z"/>
<g>
	<path style="fill:#F2F2F2;" d="M383.7,92.1h-53.1l15.3,55.5l-83.2,132.3c15.8-186.2,82.5-269,82.5-269l38.4,14v67.2H383.7z"/>
	<rect x="281.4" y="408.6" style="fill:#F2F2F2;" width="65.7" height="11.4"/>
</g>
<path style="fill:#4CDBC4;" d="M117.6,197.1l16.7,184.3l-23.5,96L240.2,497c10-84,10.3-156.2,5.2-217.1
	c-15.8-186.2-82.5-269-82.5-269l-38.4,14L57.8,49.1L0,379.4l81.4,12.7L117.6,197.1z"/>
<g>
	<path style="fill:#F2F2F2;" d="M124.3,92.1h53.1l-15.3,55.5l83.2,132.3c-15.8-186.2-82.5-269-82.5-269l-38.4,14v67.2H124.3z"/>
	<rect x="160.9" y="408.6" style="fill:#F2F2F2;" width="65.7" height="11.4"/>
</g>
</svg>